<?xml version="1.0" encoding="UTF-8" standalone="no"?><!DOCTYPE svg PUBLIC "-//W3C//DTD SVG 1.1//EN" "http://www.w3.org/Graphics/SVG/1.1/DTD/svg11.dtd"><svg width="100%" height="100%" viewBox="0 0 512 512" version="1.1" xmlns="http://www.w3.org/2000/svg" xmlns:xlink="http://www.w3.org/1999/xlink" xml:space="preserve" style="fill-rule:evenodd;clip-rule:evenodd;stroke-linejoin:round;stroke-miterlimit:1.41421;"><path d="M134.3,476.1l0,22.47c0,7.42 6.01,13.43 13.43,13.43l17.9,0c7.42,0 13.44,-6.01 13.44,-13.43l0,-22.46l-44.77,0l0,-0.01ZM332.93,476.1l0,22.47c0,7.42 6.01,13.43 13.43,13.43l17.9,0c7.42,0 13.43,-6.01 13.43,-13.43l0,-22.46l-44.76,0l0,-0.01Z" style="fill:#636d77;fill-rule:nonzero;"/><path d="M152.2,498.57l0,-22.46l-17.9,0l0,22.46c0,7.42 6.01,13.43 13.43,13.43l17.9,0c-7.364,-0.005 -13.42,-6.066 -13.42,-13.43l-0.01,0ZM350.84,498.57l0,-22.46l-17.9,0l0,22.46c0,7.42 6,13.43 13.42,13.43l17.9,0c-7.364,-0.005 -13.42,-6.066 -13.42,-13.43l0,0Z" style="fill:#020202;fill-opacity:0.15;fill-rule:nonzero;"/><path d="M198.52,478.35l-55.84,0c-18.048,0 -32.9,-14.852 -32.9,-32.9l0,-412.55c0,-18.048 14.852,-32.9 32.9,-32.9l226.64,0c18.048,0 32.9,14.852 32.9,32.9l0,412.55c0,18.048 -14.852,32.9 -32.9,32.9l-170.8,0" style="fill:#9be0b6;fill-rule:nonzero;"/><path d="M402.22,32.9c0,-18.048 -14.852,-32.9 -32.9,-32.9l-226.64,0c-18.048,0 -32.9,14.852 -32.9,32.9l0,162.37l292.44,0l0,-135.53" style="fill:#78d59c;fill-rule:nonzero;"/><path d="M367.36,163.7c-4.608,0 -8.4,-3.792 -8.4,-8.4l0,-116.08c0,-4.608 3.792,-8.4 8.4,-8.4c4.608,0 8.4,3.792 8.4,8.4l0,116.08c0,4.608 -3.792,8.4 -8.4,8.4l0,0ZM367.36,437.87c-4.608,0 -8.4,-3.792 -8.4,-8.4l0,-5.63c0,-4.608 3.792,-8.4 8.4,-8.4c4.608,0 8.4,3.792 8.4,8.4l0,5.63c0,4.608 -3.792,8.4 -8.4,8.4l0,0ZM367.36,405c-4.608,0 -8.4,-3.792 -8.4,-8.4l0,-161.9c0,-4.608 3.792,-8.4 8.4,-8.4c4.608,0 8.4,3.792 8.4,8.4l0,161.9c0,4.608 -3.792,8.4 -8.4,8.4l0,0Z" style="fill:#f5f5f5;fill-opacity:0.55;fill-rule:nonzero;"/><path d="M109.78,195.27l0,27.98l80.48,0c7.42,0 13.43,-6.01 13.43,-13.43l0,-14.55l-93.91,0l0,0Z" style="fill:#bde7cd;fill-rule:nonzero;"/><path d="M150.77,144.24c-4.608,0 -8.4,-3.792 -8.4,-8.4l0,-69.08c0,-4.608 3.792,-8.4 8.4,-8.4l13.43,0c4.608,0 8.4,3.792 8.4,8.4c0,4.608 -3.792,8.4 -8.4,8.4l-5.04,0l0,60.68c0,4.608 -3.792,8.4 -8.4,8.4l0.01,0Z" style="fill:#636d77;fill-rule:nonzero;"/><path d="M127.68,445.45l0,-412.55c0,-18.048 14.852,-32.9 32.9,-32.9l-17.9,0c-18.048,0 -32.9,14.852 -32.9,32.9l0,412.56c0,18.048 14.852,32.9 32.9,32.9l17.9,0c-18.048,0 -32.9,-14.852 -32.9,-32.9l0,-0.01Z" style="fill:#020202;fill-opacity:0.15;fill-rule:nonzero;"/></svg>